<svg xmlns="http://www.w3.org/2000/svg" viewBox="0 0 39.3 40"><defs><style>.cls-1{fill:#14213d;}</style></defs><title>account-icon-active</title><g id="Layer_2" data-name="Layer 2"><g id="Layer_1-2" data-name="Layer 1"><path class="cls-1" d="M15,0,14,5.05A15.77,15.77,0,0,0,9.51,7.63L4.66,6,0,14l3.88,3.37A15.89,15.89,0,0,0,3.65,20a15.89,15.89,0,0,0,.23,2.59L0,26,4.66,34l4.85-1.67A15.77,15.77,0,0,0,14,35l1,5h9.33l1-5a15.77,15.77,0,0,0,4.49-2.58L34.64,34,39.3,26l-3.87-3.37A17.08,17.08,0,0,0,35.65,20a17.08,17.08,0,0,0-.22-2.59L39.3,14,34.64,6,29.79,7.63A15.77,15.77,0,0,0,25.3,5.05l-1-5Zm4.66,12a8,8,0,1,1-8,8A8,8,0,0,1,19.65,12Z"/></g></g></svg>